<?xml version="1.0" encoding="UTF-8"?>
<svg xmlns="http://www.w3.org/2000/svg" xmlns:xlink="http://www.w3.org/1999/xlink" width="48px" height="48px" viewBox="0 0 48 48" version="1.1">
<g id="surface1">
<path style=" stroke:none;fill-rule:nonzero;fill:rgb(74.117647%,96.862745%,96.862745%);fill-opacity:1;" d="M 39.46875 16.957031 L 39.46875 11.136719 L 34.246094 5.917969 C 33.699219 5.367188 33.699219 4.476562 34.246094 3.925781 C 34.796875 3.378906 35.6875 3.378906 36.234375 3.925781 L 41.457031 9.148438 C 41.984375 9.675781 42.28125 10.390625 42.28125 11.136719 L 42.28125 14.144531 Z M 39.46875 16.957031 "/>
<path style=" stroke:none;fill-rule:nonzero;fill:rgb(31.372549%,29.411765%,51.372549%);fill-opacity:1;" d="M 42.28125 24.796875 L 39.46875 19.769531 L 39.46875 41.203125 C 39.46875 41.980469 38.839844 42.609375 38.0625 42.609375 C 37.285156 42.609375 36.65625 41.980469 36.65625 41.203125 L 36.65625 30.421875 C 36.65625 27.316406 34.136719 24.796875 31.03125 24.796875 L 28.21875 26.203125 L 31.03125 27.609375 C 32.585938 27.609375 33.84375 28.867188 33.84375 30.421875 L 33.84375 41.203125 C 33.84375 43.53125 35.734375 45.421875 38.0625 45.421875 C 40.390625 45.421875 42.28125 43.53125 42.28125 41.203125 Z M 42.28125 24.796875 "/>
<path style=" stroke:none;fill-rule:nonzero;fill:rgb(96.078431%,13.72549%,7.843137%);fill-opacity:1;" d="M 28.21875 0.703125 L 25.40625 0.703125 L 25.40625 11.953125 L 31.03125 6.328125 L 31.03125 3.515625 C 31.03125 1.960938 29.773438 0.703125 28.21875 0.703125 Z M 28.21875 0.703125 "/>
<path style=" stroke:none;fill-rule:nonzero;fill:rgb(100%,30.196078%,10.980392%);fill-opacity:1;" d="M 25.40625 0.703125 L 9.9375 0.703125 C 8.382812 0.703125 7.125 1.960938 7.125 3.515625 L 7.125 6.328125 L 28.21875 13.359375 L 28.21875 3.515625 C 28.21875 1.960938 26.960938 0.703125 25.40625 0.703125 Z M 25.40625 0.703125 "/>
<path style=" stroke:none;fill-rule:nonzero;fill:rgb(96.078431%,13.72549%,7.843137%);fill-opacity:1;" d="M 31.03125 30.421875 L 31.03125 45.890625 L 19.78125 45.890625 L 28.21875 30.421875 Z M 31.03125 30.421875 "/>
<path style=" stroke:none;fill-rule:nonzero;fill:rgb(100%,30.196078%,10.980392%);fill-opacity:1;" d="M 7.125 30.421875 L 28.21875 30.421875 L 28.21875 45.890625 L 7.125 45.890625 Z M 7.125 30.421875 "/>
<path style=" stroke:none;fill-rule:nonzero;fill:rgb(35.686275%,20%,39.215686%);fill-opacity:1;" d="M 31.03125 44.484375 L 28.21875 44.484375 L 28.21875 47.296875 L 31.03125 47.296875 C 31.808594 47.296875 32.4375 46.667969 32.4375 45.890625 C 32.4375 45.113281 31.808594 44.484375 31.03125 44.484375 Z M 31.03125 44.484375 "/>
<path style=" stroke:none;fill-rule:nonzero;fill:rgb(31.372549%,29.411765%,51.372549%);fill-opacity:1;" d="M 29.625 45.890625 C 29.625 45.113281 28.996094 44.484375 28.21875 44.484375 L 7.125 44.484375 C 6.347656 44.484375 5.71875 45.113281 5.71875 45.890625 C 5.71875 46.667969 6.347656 47.296875 7.125 47.296875 L 28.21875 47.296875 C 28.996094 47.296875 29.625 46.667969 29.625 45.890625 Z M 29.625 45.890625 "/>
<path style=" stroke:none;fill-rule:nonzero;fill:rgb(48.627451%,94.117647%,93.333333%);fill-opacity:1;" d="M 28.21875 6.328125 L 22.59375 18.375 L 28.21875 30.421875 L 31.03125 30.421875 L 31.03125 6.328125 Z M 28.21875 6.328125 "/>
<path style=" stroke:none;fill-rule:nonzero;fill:rgb(74.117647%,96.862745%,96.862745%);fill-opacity:1;" d="M 7.125 6.328125 L 7.125 30.421875 L 28.21875 30.421875 L 28.21875 21.984375 L 19.78125 15.5625 L 28.21875 9.140625 L 28.21875 6.328125 Z M 7.125 6.328125 "/>
<path style=" stroke:none;fill-rule:nonzero;fill:rgb(35.686275%,20%,39.215686%);fill-opacity:1;" d="M 21.1875 24.796875 L 19.125 26.203125 L 21.1875 27.609375 L 25.40625 27.609375 L 25.40625 24.796875 Z M 21.1875 24.796875 "/>
<path style=" stroke:none;fill-rule:nonzero;fill:rgb(31.372549%,29.411765%,51.372549%);fill-opacity:1;" d="M 16.96875 24.796875 L 14.90625 26.203125 L 16.96875 27.609375 L 21.1875 27.609375 L 21.1875 24.796875 Z M 16.96875 24.796875 "/>
<path style=" stroke:none;fill-rule:nonzero;fill:rgb(27.45098%,38.823529%,63.529412%);fill-opacity:1;" d="M 12.75 24.796875 L 16.96875 24.796875 L 16.96875 27.609375 L 12.75 27.609375 Z M 12.75 24.796875 "/>
<path style=" stroke:none;fill-rule:nonzero;fill:rgb(19.215686%,57.647059%,87.843137%);fill-opacity:1;" d="M 25.40625 9.140625 L 19.78125 15.5625 L 25.40625 21.984375 L 28.21875 21.984375 L 28.21875 9.140625 Z M 25.40625 9.140625 "/>
<path style=" stroke:none;fill-rule:nonzero;fill:rgb(14.901961%,67.058824%,100%);fill-opacity:1;" d="M 9.9375 9.140625 L 25.40625 9.140625 L 25.40625 21.984375 L 9.9375 21.984375 Z M 9.9375 9.140625 "/>
<path style=" stroke:none;fill-rule:nonzero;fill:rgb(96.078431%,13.72549%,7.843137%);fill-opacity:1;" d="M 39.46875 14.144531 L 38.0625 15.550781 L 38.0625 23.390625 L 39.46875 24.796875 L 42.28125 24.796875 L 42.28125 14.144531 Z M 39.46875 14.144531 "/>
<path style=" stroke:none;fill-rule:nonzero;fill:rgb(100%,30.196078%,10.980392%);fill-opacity:1;" d="M 38.0625 14.144531 C 37.285156 14.144531 36.65625 14.773438 36.65625 15.550781 L 36.65625 23.390625 C 36.65625 24.167969 37.285156 24.796875 38.0625 24.796875 L 39.46875 24.796875 L 39.46875 14.144531 Z M 38.0625 14.144531 "/>
<path style=" stroke:none;fill-rule:nonzero;fill:rgb(0%,0%,0%);fill-opacity:1;" d="M 28.921875 21.984375 L 28.921875 9.140625 C 28.921875 8.753906 28.605469 8.4375 28.21875 8.4375 L 9.9375 8.4375 C 9.550781 8.4375 9.234375 8.753906 9.234375 9.140625 L 9.234375 21.984375 C 9.234375 22.371094 9.550781 22.6875 9.9375 22.6875 L 28.21875 22.6875 C 28.605469 22.6875 28.921875 22.371094 28.921875 21.984375 Z M 27.515625 21.28125 L 10.640625 21.28125 L 10.640625 9.84375 L 27.515625 9.84375 Z M 12.75 24.09375 C 12.363281 24.09375 12.046875 24.410156 12.046875 24.796875 L 12.046875 27.609375 C 12.046875 27.996094 12.363281 28.3125 12.75 28.3125 L 25.40625 28.3125 C 25.792969 28.3125 26.109375 27.996094 26.109375 27.609375 L 26.109375 24.796875 C 26.109375 24.410156 25.792969 24.09375 25.40625 24.09375 Z M 20.484375 25.5 L 20.484375 26.90625 L 17.671875 26.90625 L 17.671875 25.5 Z M 13.453125 25.5 L 16.265625 25.5 L 16.265625 26.90625 L 13.453125 26.90625 Z M 24.703125 26.90625 L 21.890625 26.90625 L 21.890625 25.5 L 24.703125 25.5 Z M 24.703125 26.90625 "/>
<path style=" stroke:none;fill-rule:nonzero;fill:rgb(0%,0%,0%);fill-opacity:1;" d="M 41.953125 8.652344 L 36.734375 3.429688 C 36.335938 3.03125 35.804688 2.8125 35.242188 2.8125 C 34.679688 2.8125 34.148438 3.03125 33.75 3.429688 C 32.925781 4.253906 32.925781 5.589844 33.75 6.414062 L 38.765625 11.429688 L 38.765625 13.441406 L 38.0625 13.441406 C 36.898438 13.441406 35.953125 14.386719 35.953125 15.550781 L 35.953125 23.390625 C 35.953125 24.554688 36.898438 25.5 38.0625 25.5 L 38.765625 25.5 L 38.765625 41.203125 C 38.765625 41.589844 38.449219 41.90625 38.0625 41.90625 C 37.675781 41.90625 37.359375 41.589844 37.359375 41.203125 L 37.359375 30.421875 C 37.359375 26.933594 34.519531 24.09375 31.03125 24.09375 C 30.644531 24.09375 30.328125 24.410156 30.328125 24.796875 L 30.328125 29.71875 L 7.828125 29.71875 L 7.828125 7.03125 L 30.328125 7.03125 L 30.328125 21.984375 C 30.328125 22.371094 30.644531 22.6875 31.03125 22.6875 C 31.417969 22.6875 31.734375 22.371094 31.734375 21.984375 L 31.734375 3.515625 C 31.734375 1.578125 30.15625 0 28.21875 0 L 9.9375 0 C 8 0 6.421875 1.578125 6.421875 3.515625 L 6.421875 43.902344 C 5.605469 44.191406 5.015625 44.972656 5.015625 45.890625 C 5.015625 47.054688 5.960938 48 7.125 48 L 31.03125 48 C 32.195312 48 33.140625 47.054688 33.140625 45.890625 C 33.140625 44.972656 32.550781 44.191406 31.734375 43.902344 L 31.734375 28.433594 C 32.550781 28.722656 33.140625 29.503906 33.140625 30.421875 L 33.140625 41.203125 C 33.140625 43.917969 35.347656 46.125 38.0625 46.125 C 40.777344 46.125 42.984375 43.917969 42.984375 41.203125 L 42.984375 11.136719 C 42.984375 10.199219 42.617188 9.316406 41.953125 8.652344 Z M 39.964844 10.640625 L 34.742188 5.417969 C 34.46875 5.144531 34.46875 4.699219 34.742188 4.425781 C 34.875 4.292969 35.054688 4.21875 35.242188 4.21875 C 35.429688 4.21875 35.605469 4.292969 35.738281 4.425781 L 40.960938 9.648438 C 41.359375 10.046875 41.578125 10.574219 41.578125 11.136719 L 41.578125 13.441406 L 40.171875 13.441406 L 40.171875 11.136719 C 40.171875 10.953125 40.097656 10.773438 39.964844 10.640625 Z M 37.359375 23.390625 L 37.359375 15.550781 C 37.359375 15.160156 37.675781 14.847656 38.0625 14.847656 L 41.578125 14.847656 L 41.578125 24.09375 L 38.0625 24.09375 C 37.675781 24.09375 37.359375 23.777344 37.359375 23.390625 Z M 30.328125 31.125 L 30.328125 43.78125 L 7.828125 43.78125 L 7.828125 31.125 Z M 9.9375 1.40625 L 28.21875 1.40625 C 29.382812 1.40625 30.328125 2.351562 30.328125 3.515625 L 30.328125 5.625 L 7.828125 5.625 L 7.828125 3.515625 C 7.828125 2.351562 8.773438 1.40625 9.9375 1.40625 Z M 31.03125 46.59375 L 7.125 46.59375 C 6.738281 46.59375 6.421875 46.277344 6.421875 45.890625 C 6.421875 45.503906 6.738281 45.1875 7.125 45.1875 L 31.03125 45.1875 C 31.417969 45.1875 31.734375 45.503906 31.734375 45.890625 C 31.734375 46.277344 31.417969 46.59375 31.03125 46.59375 Z M 38.0625 44.71875 C 36.125 44.71875 34.546875 43.140625 34.546875 41.203125 L 34.546875 30.421875 C 34.546875 28.722656 33.335938 27.304688 31.734375 26.976562 L 31.734375 25.550781 C 34.117188 25.890625 35.953125 27.945312 35.953125 30.421875 L 35.953125 41.203125 C 35.953125 42.367188 36.898438 43.3125 38.0625 43.3125 C 39.226562 43.3125 40.171875 42.367188 40.171875 41.203125 L 40.171875 25.5 L 41.578125 25.5 L 41.578125 41.203125 C 41.578125 43.140625 40 44.71875 38.0625 44.71875 Z M 38.0625 44.71875 "/>
</g>
</svg>
